# xmcd CD database file
#
# Track frame offsets:
#	150
#	23028
#	41997
#	67548
#	87973
#	111787
#	133489
#	173722
#	222090
#	246165
#	261785
#
# Disc length: 3828 seconds
#
# Revision: 1
# Processed by: cddbd v1.5.2PL0 Copyright (c) Steve Scherf et al.
# Submitted via: CDex 1.70beta2
#
DISCID=960ef20b
DTITLE=Vargas Blues Band - Live Wire
DYEAR=2011
DGENRE=Blues
TTITLE0=Talking About The Blues (Live 2010)
TTITLE1=Texas Tango (Live 2010)
TTITLE2=Hard Time Blues (Live 2010)
TTITLE3=Tobacco Road
TTITLE4=Thank You (Falettinme Be Mice ElfAgin)
TTITLE5=People Get Ready
TTITLE6=Back Alley Blues (Live 2010)
TTITLE7=Black Cat Boogie (Featuring Jorge Salan)
TTITLE8=On The Road Again
TTITLE9=Purple Haze
TTITLE10=Them Changes
EXTD=YEAR: 2011
EXTT0=
EXTT1=
EXTT2=
EXTT3=
EXTT4=
EXTT5=
EXTT6=
EXTT7=
EXTT8=
EXTT9=
EXTT10=
PLAYORDER=
